<svg width="30" height="30" viewBox="0 0 30 30" fill="none" xmlns="http://www.w3.org/2000/svg">
<g clip-path="url(#clip0_477:603)">
<path d="M25.8356 12.5612H9.73324L13.9217 8.34888L14.9989 9.41427L19.2117 5.19546C20.4115 3.9959 20.4539 2.86226 20.2786 2.12494C20.0914 1.33787 19.6198 0.844805 19.5668 0.791323L19.093 0.313826L13.5648 5.86524L6.86239 12.5611H5.06867V7.2028H5.53383C6.72641 7.2028 7.69728 6.24417 7.69728 5.05139V0.0247803H6.18077V4.19476C6.18077 4.566 5.89486 4.86688 5.52362 4.86688C5.15238 4.86688 4.86647 4.566 4.86647 4.19476V0.0247803H3.34996V4.19476C3.34996 4.566 3.06405 4.86688 2.69281 4.86688C2.32157 4.86688 2.03566 4.566 2.03566 4.19476V0.0247803H0.519151V5.05149C0.519151 6.24427 1.53976 7.2029 2.73274 7.2029H3.04666V12.6614C1.32795 13.1444 0 14.7637 0 16.6821C0 18.9819 1.88087 20.8514 4.18121 20.8514H20.2749L17.9053 23.2163C16.5405 22.475 14.7978 22.6783 13.6436 23.8323C12.2378 25.2377 12.2378 27.5158 13.6436 28.9214C15.0492 30.3271 17.3285 30.3264 18.7337 28.9208C19.8885 27.7664 20.0941 26.0278 19.352 24.6629L23.168 20.8515H25.8358C28.1361 20.8515 30.0001 19.0061 30.0001 16.706C30 14.4065 28.1359 12.5612 25.8356 12.5612ZM4.10842 15.6543C4.67367 15.6543 5.13165 16.1127 5.13165 16.6773C5.13165 17.2425 4.67367 17.7008 4.10842 17.7008C3.54347 17.7008 3.08538 17.2425 3.08538 16.6773C3.08538 16.1127 3.54347 15.6543 4.10842 15.6543ZM25.9082 17.7008C25.3434 17.7008 24.8853 17.2425 24.8853 16.6773C24.8853 16.1127 25.3434 15.6543 25.9082 15.6543C26.4736 15.6543 26.9318 16.1127 26.9318 16.6773C26.9318 17.2425 26.4736 17.7008 25.9082 17.7008Z" fill="#3A3A3A"/>
</g>
<defs>
<clipPath id="clip0_477:603">
<rect width="30" height="30" fill="white"/>
</clipPath>
</defs>
</svg>
