<svg width="28" height="30" viewBox="0 0 28 30" fill="none" xmlns="http://www.w3.org/2000/svg">
<path d="M13.3492 12.0957C11.8714 10.4862 9.90094 9.6001 7.79972 9.6001C5.69849 9.6001 3.72806 10.4862 2.25089 12.0957C-0.750298 15.3657 -0.750298 20.6852 2.25089 23.9552L7.79972 30.0001L13.3485 23.9552C16.3504 20.6852 16.3504 15.3657 13.3492 12.0957ZM7.79972 20.8954C5.64643 20.8954 3.8953 19.2068 3.8953 17.1303C3.8953 15.0539 5.64643 13.3652 7.79972 13.3652C9.953 13.3652 11.7041 15.0539 11.7041 17.1303C11.7041 19.2068 9.953 20.8954 7.79972 20.8954Z" fill="#929292"/>
<path d="M21.0001 18L25.7024 12.6486C28.2325 9.76937 28.2325 5.0863 25.7024 2.20712C24.4512 0.783695 22.7809 0 20.9994 0C19.2185 0 17.5483 0.783695 16.297 2.20712C13.7676 5.0863 13.7676 9.76937 16.297 12.6486L21.0001 18ZM21.179 2.93794C23.3847 2.93794 25.1801 4.75064 25.1801 6.9776C25.1801 9.20455 23.3847 11.0173 21.179 11.0173C18.9734 11.0173 17.178 9.20455 17.178 6.9776C17.178 4.75064 18.9734 2.93794 21.179 2.93794Z" fill="#929292"/>
</svg>
