<svg width="30" height="30" viewBox="0 0 30 30" fill="none" xmlns="http://www.w3.org/2000/svg">
<g clip-path="url(#clip0_477:594)">
<path d="M7.40112 19.1379C8.35809 20.3118 10.6998 22.4752 14.9593 22.4752C18.1747 22.4752 20.2975 21.2424 21.5566 20.133C22.858 19.1158 23.7749 17.4944 24.1417 16.0382C25.4866 10.7033 22.5283 6.51973 18.8637 3.99133C18.8637 5.24012 18.6557 6.28602 18.3235 7.19716C16.8802 5.38765 15.2672 3.48486 15.2672 0C11.8825 2.33484 9.10142 6.0815 9.75411 10.8421C9.0126 10.075 8.3657 9.10066 7.96113 7.70231C5.71126 10.4021 4.37041 14.2251 6.58509 18.0375C6.80218 18.411 7.07909 18.7863 7.40112 19.1379ZM15.0213 11.7959C15.0213 15.2046 17.754 15.8435 17.8118 18.3794C17.8478 19.9898 16.6144 21.1955 15.0213 21.1696C13.5879 21.1465 12.5403 19.648 12.2307 18.3794C11.5197 15.4641 13.0838 13.1774 15.0213 11.7959Z" fill="#3A3A3A"/>
<path d="M8.6483 23.6845C6.9047 23.7428 5.5391 25.2039 5.59751 26.9475C5.65622 28.6909 7.11692 30.0568 8.86072 29.9983C10.6041 29.9395 11.9699 28.4786 11.9115 26.7351C11.853 24.9917 10.3916 23.6258 8.6483 23.6845ZM8.75456 27.8685C8.18725 27.8685 7.72712 27.4085 7.72712 26.8413C7.72712 26.2743 8.18725 25.8142 8.75456 25.8142C9.32177 25.8142 9.7819 26.2743 9.7819 26.8413C9.7818 27.4085 9.32167 27.8685 8.75456 27.8685Z" fill="#3A3A3A"/>
<path d="M14.9655 23.6845C13.2221 23.7428 11.8559 25.2039 11.9149 26.9475C11.9733 28.6909 13.4341 30.0568 15.1779 29.9983C16.9215 29.9395 18.2871 28.4786 18.2287 26.7351C18.17 24.9917 16.7091 23.6258 14.9655 23.6845ZM15.0716 27.8685C14.5044 27.8685 14.0443 27.4085 14.0443 26.8413C14.0443 26.2743 14.5044 25.8142 15.0716 25.8142C15.639 25.8142 16.099 26.2743 16.099 26.8413C16.099 27.4085 15.639 27.8685 15.0716 27.8685Z" fill="#3A3A3A"/>
<path d="M24.5461 26.7351C24.4877 24.9917 23.0267 23.6258 21.2832 23.6845C19.5399 23.7428 18.1738 25.2039 18.2323 26.9475C18.2909 28.6909 19.7517 30.0568 21.4954 29.9983C23.2389 29.9394 24.6048 28.4785 24.5461 26.7351ZM21.3892 27.8685C20.822 27.8685 20.3622 27.4085 20.3622 26.8413C20.3622 26.2743 20.822 25.8142 21.3892 25.8142C21.9563 25.8142 22.4165 26.2743 22.4165 26.8413C22.4165 27.4085 21.9563 27.8685 21.3892 27.8685Z" fill="#3A3A3A"/>
</g>
<defs>
<clipPath id="clip0_477:594">
<rect width="30" height="30" fill="white"/>
</clipPath>
</defs>
</svg>
