<svg width="30" height="30" viewBox="0 0 30 30" fill="none" xmlns="http://www.w3.org/2000/svg">
<path d="M27.5281 12.6655C26.637 14.2852 24.9564 15.3985 22.9808 15.3985H22.2449V16.5751V18.3907C22.2449 18.9587 21.7412 19.4193 21.1733 19.4193C20.6053 19.4193 20.102 18.9587 20.102 18.3907V15.3985H9.89796V18.3907C9.89796 18.9587 9.39439 19.4193 8.82663 19.4193C8.25867 19.4193 7.7551 18.9587 7.7551 18.3907V16.5751V15.3985H7.08918C5.11357 15.3985 3.39816 14.2852 2.50704 12.6655C1.0399 13.2761 0 14.794 0 16.5752V21.53C0 23.8437 1.75153 25.7047 3.91082 25.7047C3.91092 25.7047 3.87755 25.7047 3.87755 25.7047V25.5497V23.6639H26.1224V25.5497V25.7047H26.159C28.3183 25.7047 30 23.8437 30 21.53V16.5752C30 14.7941 28.9951 13.2763 27.5281 12.6655Z" fill="#3A3A3A"/>
<path d="M8.11785 29.7862H21.9523C24.2034 29.7862 26.0554 27.9495 26.1542 25.7046H3.91602C4.01479 27.9495 5.86683 29.7862 8.11785 29.7862Z" fill="#3A3A3A"/>
<path d="M11.5759 3.66379H7.08907C5.33652 3.66379 3.87744 5.10123 3.87744 6.85379V10.1379C3.87744 11.8904 5.33652 13.3578 7.08907 13.3578H7.75499V9.37766C7.75499 8.8095 8.25856 8.34909 8.82652 8.34909C9.39428 8.34909 9.89785 8.8095 9.89785 9.37766V13.3577H20.1019V9.37766C20.1019 8.8095 20.6052 8.34909 21.1732 8.34909C21.7411 8.34909 22.2448 8.8095 22.2448 9.37766V13.3577H22.9807C24.7333 13.3577 26.1223 11.8903 26.1223 10.1378V6.85379C26.1223 5.10123 24.7333 3.66379 22.9807 3.66379H18.4938C18.4938 2.9495 18.2408 2.18838 17.814 1.61307C17.1832 0.76297 16.1722 0.213684 15.0347 0.213684C13.8972 0.213684 12.8864 0.761541 12.2557 1.61154C11.8289 2.18705 11.5759 2.9495 11.5759 3.66379ZM16.4372 3.66379H13.6325C13.6325 2.9495 14.2615 2.26164 15.0347 2.26164C15.8081 2.26164 16.4372 2.9495 16.4372 3.66379Z" fill="#3A3A3A"/>
</svg>
