<svg width="24" height="24" viewBox="0 0 24 24" fill="none" xmlns="http://www.w3.org/2000/svg">
<path fill-rule="evenodd" clip-rule="evenodd" d="M11.604 24C18.0126 24 23.2079 18.6274 23.2079 12C23.2079 5.37258 18.0126 0 11.604 0C5.19527 0 0 5.37258 0 12C0 18.6274 5.19527 24 11.604 24ZM15.6192 14.0338L17.3489 15.8914C17.6925 16.2616 17.6822 16.8743 17.3259 17.2577L16.832 17.777L16.8214 17.7669C16.6129 17.942 16.3725 18.0885 16.1154 18.1964C15.876 18.2962 15.6405 18.3593 15.3947 18.3908C15.2819 18.4037 12.6662 18.667 9.42032 15.1816C7.07218 12.66 6.20695 10.8018 6.43534 8.76854C6.46202 8.51499 6.52035 8.26195 6.61405 7.99679C6.7157 7.71822 6.85229 7.4599 7.01575 7.23593L7.00243 7.22173L7.4899 6.69524C7.84697 6.3117 8.41776 6.3005 8.76147 6.66953L10.4911 8.52736C10.8348 8.8969 10.825 9.5094 10.4679 9.89294L10.1804 10.2021L9.59556 10.8292C9.62175 10.8784 9.64823 10.9298 9.6756 10.983C9.68014 10.9918 9.6847 11.0007 9.68929 11.0096L9.69102 11.013C9.99671 11.604 10.4149 12.4126 11.2083 13.2644C12.0009 14.1161 12.754 14.5649 13.3043 14.8923C13.3642 14.9285 13.4212 14.9625 13.4763 14.9951L14.3477 14.0595C14.7042 13.6765 15.2747 13.6653 15.6192 14.0338Z" fill="#929292"/>
</svg>
