<svg width="30" height="30" viewBox="0 0 30 30" fill="none" xmlns="http://www.w3.org/2000/svg">
<g clip-path="url(#clip0_477:651)">
<path d="M12.05 27.0722C12.05 28.675 13.3726 29.9742 14.9768 29.9742C16.581 29.9742 17.9036 28.6749 17.9036 27.0722V26.9737C17.2981 26.9737 16.8545 26.5265 16.8545 25.9653C16.8545 25.4042 17.399 24.9569 17.9036 24.9569V22.9402C17.2981 22.9402 16.8545 22.493 16.8545 21.9319C16.8545 21.3707 17.2981 20.9297 17.9036 20.9297V18.4026H12.05V27.0722Z" fill="#3A3A3A"/>
<path d="M17.9414 16.3859C18.2327 16.2071 18.4232 15.9072 18.4232 15.5407C18.4232 15.2169 18.2711 14.9292 18.035 14.7431C18.3083 13.7484 18.4479 12.2072 18.167 9.83758C17.2255 1.88896 12.3528 0 12.3528 0V14.5525C11.8482 14.6579 11.5769 15.0493 11.5769 15.5301C11.5769 15.8971 11.7801 16.1841 12.072 16.3858H17.9414V16.3859Z" fill="#3A3A3A"/>
</g>
<defs>
<clipPath id="clip0_477:651">
<rect width="30" height="29.9742" fill="white"/>
</clipPath>
</defs>
</svg>
