<svg width="30" height="24" viewBox="0 0 30 24" fill="none" xmlns="http://www.w3.org/2000/svg">
<path d="M25.1976 6.10257L25.0338 6.10226V4.86892C25.0338 2.20976 22.8481 0 20.189 0H9.87851C7.21926 0 4.96622 2.20966 4.96622 4.86892V6.05615L4.80243 6.05574C2.14318 6.04956 0 8.2203 0 10.8795V18.5757C0 21.2348 2.18199 23.4155 4.84105 23.4216L25.1895 23.4683C27.8487 23.4745 30 21.3037 30 18.6446V10.9486C30 8.28942 27.8567 6.10875 25.1976 6.10257ZM19.9662 15.8108H16.0135V19.7635H13.9865V15.8108H10.0338V13.7838H13.9865V9.72973H16.0135V13.7838H19.9662V15.8108ZM22.9054 6.06405L7.09459 6.06081V4.86892C7.09459 3.32929 8.33878 2.02703 9.87851 2.02703H20.189C21.7286 2.02703 22.9054 3.32929 22.9054 4.86892V6.06405Z" fill="#3A3A3A"/>
</svg>
