<svg width="24" height="24" viewBox="0 0 24 24" fill="none" xmlns="http://www.w3.org/2000/svg">
<path d="M23.2079 12C23.2079 18.6274 18.0126 24 11.604 24C5.19527 24 0 18.6274 0 12C0 5.37258 5.19527 0 11.604 0C18.0126 0 23.2079 5.37258 23.2079 12Z" fill="#F4B207"/>
<path d="M11.5998 5.59998C9.17389 5.59998 7.20001 7.55647 7.20001 9.9613C7.20001 10.5886 7.32954 11.1875 7.58481 11.7415C8.68488 14.1276 10.794 16.6467 11.4144 17.3619C11.4609 17.4153 11.5286 17.4461 11.6 17.4461C11.6713 17.4461 11.739 17.4153 11.7855 17.3619C12.4056 16.6468 14.5148 14.1278 15.6152 11.7415C15.8706 11.1875 16 10.5886 16 9.9613C15.9998 7.55647 14.0259 5.59998 11.5998 5.59998ZM11.5998 12.2266C10.3396 12.2266 9.3143 11.2103 9.3143 9.96118C9.3143 8.71197 10.3396 7.69565 11.5998 7.69565C12.86 7.69565 13.8854 8.71197 13.8854 9.96118C13.8855 11.2103 12.8601 12.2266 11.5998 12.2266Z" fill="white"/>
</svg>
