<svg width="20" height="20" viewBox="0 0 20 20" fill="none" xmlns="http://www.w3.org/2000/svg">
<g clip-path="url(#clip0_491:3078)">
<path d="M16.1378 5.58191H3.86245C3.49098 5.58191 3.18983 5.88302 3.18983 6.25446V16.7613C3.18983 18.5472 4.64281 20.0001 6.42856 20.0001H13.5715C15.3573 20.0001 16.8103 18.5472 16.8103 16.7613V6.25446C16.8103 5.88305 16.5093 5.58191 16.1378 5.58191ZM8.38327 15.9492C8.38327 16.4055 8.01333 16.7755 7.55693 16.7755C7.10068 16.7755 6.73059 16.4055 6.73059 15.9492V9.63276C6.73059 9.17639 7.10062 8.80648 7.55693 8.80648C8.0133 8.80648 8.38327 9.17642 8.38327 9.63276V15.9492ZM13.2696 15.9492C13.2696 16.4055 12.8996 16.7755 12.4432 16.7755C11.987 16.7755 11.6169 16.4055 11.6169 15.9492V9.63276C11.6169 9.17639 11.9869 8.80648 12.4432 8.80648C12.8996 8.80648 13.2696 9.17642 13.2696 9.63276V15.9492Z" fill="#929292"/>
<path d="M15.4639 1.04647H12.5341V0.792386C12.5341 0.355458 12.1787 0 11.7418 0H8.25842C7.82149 0 7.46604 0.355458 7.46604 0.792386V1.04647H4.53617C3.41427 1.04647 2.5015 1.95918 2.5015 3.08111V4.38582C2.5015 4.61915 2.69065 4.80833 2.92408 4.80833H17.0762C17.3094 4.80833 17.4986 4.61915 17.4986 4.38582V3.08111C17.4986 1.95922 16.5859 1.04647 15.4639 1.04647Z" fill="#929292"/>
</g>
<defs>
<clipPath id="clip0_491:3078">
<rect width="20" height="20" fill="white"/>
</clipPath>
</defs>
</svg>
