<svg width="28" height="30" viewBox="0 0 28 30" fill="none" xmlns="http://www.w3.org/2000/svg">
<path d="M13.8889 16.6737C6.21827 16.6737 0 22.6401 0 30H27.7778C27.7778 22.6401 21.5595 16.6737 13.8889 16.6737Z" fill="#929292"/>
<path fill-rule="evenodd" clip-rule="evenodd" d="M20.0572 13.6197H21.0355L26.286 18.8939C26.7937 19.4015 26.7937 20.231 26.286 20.7387C25.7783 21.2463 24.9486 21.2463 24.4409 20.7387L19.178 15.4768V14.4987L18.8437 14.1521C17.11 15.6378 14.7448 16.4054 12.231 15.9844C8.78847 15.4025 6.03939 12.5302 5.61836 9.06354C4.97443 3.82645 9.38286 -0.581124 14.621 0.0626787C18.0883 0.483627 20.9612 3.23217 21.5432 6.67404C21.9642 9.18735 21.1965 11.5521 19.7105 13.2854L20.0572 13.6197ZM8.03412 8.04926C8.03412 11.1321 10.5232 13.6206 13.6066 13.6206C16.69 13.6206 19.1791 11.1321 19.1791 8.04926C19.1791 4.96644 16.69 2.47789 13.6066 2.47789C10.5232 2.47789 8.03412 4.96644 8.03412 8.04926Z" fill="#929292"/>
</svg>
