<svg width="24" height="24" viewBox="0 0 24 24" fill="none" xmlns="http://www.w3.org/2000/svg">
<path d="M19.6453 4.38782C18.5948 3.33736 16.8918 3.33736 15.8413 4.38782L5.17754 15.0516C5.10446 15.1247 5.05169 15.2153 5.02414 15.3147L3.62182 20.3774C3.56415 20.585 3.62275 20.8073 3.77498 20.9597C3.92745 21.112 4.14973 21.1706 4.3573 21.1131L9.41999 19.7106C9.51945 19.683 9.61004 19.6303 9.68313 19.5572L20.3467 8.89316C21.3955 7.84201 21.3955 6.14036 20.3467 5.08921L19.6453 4.38782ZM6.47993 15.4401L15.2074 6.7124L18.0221 9.52708L9.29437 18.2548L6.47993 15.4401ZM5.91769 16.5683L8.1664 18.8173L5.05589 19.6791L5.91769 16.5683ZM19.5015 8.04794L18.8676 8.68186L16.0526 5.86695L16.6868 5.23304C17.2703 4.64955 18.2164 4.64955 18.7998 5.23304L19.5015 5.93443C20.084 6.51861 20.084 7.46399 19.5015 8.04794Z" fill="#F4B207"/>
</svg>
