<svg width="24" height="24" viewBox="0 0 24 24" fill="none" xmlns="http://www.w3.org/2000/svg">
<path d="M23.2079 12C23.2079 18.6274 18.0126 24 11.604 24C5.19527 24 0 18.6274 0 12C0 5.37258 5.19527 0 11.604 0C18.0126 0 23.2079 5.37258 23.2079 12Z" fill="#929292"/>
<path d="M12 11.529C13.7063 11.529 15.0896 10.2017 15.0896 8.56447C15.0896 6.92723 13.7063 5.59998 12 5.59998C10.2936 5.59998 8.91031 6.92723 8.91031 8.56447C8.91031 10.2017 10.2936 11.529 12 11.529Z" fill="white"/>
<path d="M12 11.8748C8.9072 11.8748 6.39999 14.2805 6.39999 17.248H17.6C17.6 14.2805 15.0928 11.8748 12 11.8748Z" fill="white"/>
</svg>
