<svg width="30" height="30" viewBox="0 0 30 30" fill="none" xmlns="http://www.w3.org/2000/svg">
<path d="M15.8006 5.82602C17.0495 5.47559 17.9682 4.32761 17.9682 2.96834C17.9682 1.3316 16.6366 0 14.9999 0C13.363 0 12.0312 1.3316 12.0312 2.96834C12.0312 4.32761 12.9501 5.47559 14.1991 5.82602C7.88948 6.23847 2.89941 11.4854 2.89941 17.8995C2.89941 24.5822 8.31673 30 14.9998 30C21.6825 30 27.1002 24.5822 27.1002 17.8995C27.1003 11.4854 22.11 6.23837 15.8006 5.82602ZM14.9999 2.05193C15.5052 2.05193 15.9163 2.46306 15.9163 2.96834C15.9163 3.47362 15.5052 3.88476 14.9999 3.88476C14.4944 3.88476 14.0832 3.47362 14.0832 2.96834C14.0832 2.46306 14.4943 2.05193 14.9999 2.05193ZM16.2847 27.8662L15.0528 26.1892L13.7413 27.8693C9.21349 27.3011 5.61309 23.7083 5.03322 19.1841L6.70979 17.9526L5.02998 16.6415C5.59799 12.1135 9.19058 8.51294 13.7148 7.93277L14.9465 9.60964L16.2577 7.92953C20.7857 8.49754 24.3864 12.0901 24.9664 16.6143L23.2893 17.8462L24.9697 19.1577C24.4017 23.6857 20.809 27.2863 16.2847 27.8662Z" fill="#3A3A3A"/>
<path d="M13.7393 16.7779C12.6847 17.8323 7.73967 24.2097 8.25762 24.7275C8.77516 25.245 15.1462 20.2937 16.245 19.1952C17.3436 18.0963 22.26 11.7609 21.7421 11.2427C21.2241 10.725 14.8824 15.6348 13.7393 16.7779ZM14.9999 18.8402C14.4801 18.8402 14.0593 18.4191 14.0593 17.8995C14.0593 17.38 14.4801 16.9589 14.9999 16.9589C15.5192 16.9589 15.9406 17.38 15.9406 17.8995C15.9406 18.4191 15.5192 18.8402 14.9999 18.8402Z" fill="#3A3A3A"/>
</svg>
