<svg width="24" height="24" viewBox="0 0 24 24" fill="none" xmlns="http://www.w3.org/2000/svg">
<path d="M23.2079 12C23.2079 18.6274 18.0126 24 11.604 24C5.19527 24 0 18.6274 0 12C0 5.37258 5.19527 0 11.604 0C18.0126 0 23.2079 5.37258 23.2079 12Z" fill="#929292"/>
<g clip-path="url(#clip0_503:1740)">
<path d="M15.375 10.5H15V9C15 7.3455 13.6545 6 12 6C10.3455 6 8.99999 7.3455 8.99999 9V10.5H8.62499C8.00499 10.5 7.49999 11.0045 7.49999 11.625V16.875C7.49999 17.4955 8.00499 18 8.62499 18H15.375C15.995 18 16.5 17.4955 16.5 16.875V11.625C16.5 11.0045 15.995 10.5 15.375 10.5ZM9.99999 9C9.99999 7.897 10.897 7 12 7C13.103 7 14 7.897 14 9V10.5H9.99999V9ZM12.5 14.361V15.5C12.5 15.776 12.2765 16 12 16C11.7235 16 11.5 15.776 11.5 15.5V14.361C11.2025 14.1875 11 13.8685 11 13.5C11 12.9485 11.4485 12.5 12 12.5C12.5515 12.5 13 12.9485 13 13.5C13 13.8685 12.7975 14.1875 12.5 14.361Z" fill="white"/>
</g>
<defs>
<clipPath id="clip0_503:1740">
<rect width="12" height="12" fill="white" transform="translate(6 6)"/>
</clipPath>
</defs>
</svg>
