<svg width="38" height="37" viewBox="0 0 38 37" fill="none" xmlns="http://www.w3.org/2000/svg">
<g filter="url(#filter0_d_477:621)">
<path d="M16.1615 5.22905V2.71943C16.1615 1.81015 15.4493 1.07297 14.5397 1.07297C13.6306 1.07297 12.9184 1.81026 12.9184 2.71943V5.27202H4V27.9057C4 28.4697 4.45058 28.927 5.01457 28.927C5.48532 28.927 5.87722 28.6079 5.99549 28.1748C6.11376 28.6079 6.50739 28.927 6.97814 28.927C7.44899 28.927 7.84353 28.6079 7.9616 28.1744C8.07966 28.6078 8.47461 28.927 8.94556 28.927C9.41672 28.927 9.81196 28.6075 9.92993 28.1736C10.0477 28.6074 10.4278 28.927 10.8991 28.927C11.4631 28.927 11.905 28.4697 11.905 27.9057V26.4532H17.783V27.9057C17.783 28.4697 18.2326 28.927 18.7965 28.927C19.2673 28.927 19.6587 28.6079 19.777 28.1748C19.8952 28.6079 20.2886 28.927 20.7593 28.927C21.2304 28.927 21.6248 28.6077 21.7428 28.174C21.8607 28.6076 22.2557 28.927 22.7268 28.927C23.1977 28.927 23.5928 28.6079 23.7109 28.1744C23.829 28.6078 24.2242 28.927 24.6952 28.927C25.1661 28.927 25.5614 28.6079 25.6794 28.1744C25.7975 28.6078 26.1928 28.927 26.6638 28.927C27.1343 28.927 27.5295 28.6081 27.6479 28.1752C27.7662 28.6081 28.1615 28.927 28.632 28.927C29.103 28.927 29.4985 28.6077 29.6165 28.174C29.7345 28.6076 30.1018 28.927 30.5728 28.927C31.1368 28.927 31.5659 28.4697 31.5659 27.9057V26.0352C32.9847 25.3543 33.9999 23.8768 33.9999 22.1938C33.9999 19.8582 32.1349 17.9402 29.799 17.9402H28.9968C21.9498 17.9403 16.1615 12.2764 16.1615 5.22905ZM16.5819 15.2657C16.9144 15.7207 16.814 16.3592 16.358 16.6916C16.1766 16.8234 15.9658 16.8872 15.758 16.8872C15.4418 16.8872 15.1317 16.7413 14.9321 16.4667C14.5997 16.0107 14.7001 15.3722 15.1561 15.0408C15.6122 14.7083 16.2506 14.8096 16.5819 15.2657ZM14.9129 11.9963C15.0872 12.5324 14.7943 13.1081 14.2582 13.2824C14.1528 13.3168 14.0474 13.332 13.942 13.332C13.5123 13.332 13.1121 13.0584 12.9711 12.6266C12.7978 12.0905 13.0908 11.5148 13.6269 11.3406C14.1628 11.1664 14.7386 11.4602 14.9129 11.9963ZM12.5982 7.64249C12.7887 7.45297 13.0512 7.34352 13.3197 7.34352C13.5882 7.34352 13.8518 7.45297 14.0423 7.64249C14.2318 7.83302 14.3413 8.0955 14.3413 8.36407C14.3413 8.63263 14.2318 8.89613 14.0423 9.08666C13.8518 9.27618 13.5883 9.38563 13.3197 9.38563C13.0512 9.38563 12.7887 9.27618 12.5982 9.08666C12.4086 8.89613 12.2992 8.63274 12.2992 8.36407C12.2992 8.0954 12.4086 7.83302 12.5982 7.64249ZM21.1649 20.1881C21.3392 19.6519 21.9147 19.3581 22.4509 19.5323C22.987 19.7067 23.2809 20.2822 23.1066 20.8183C22.9667 21.2502 22.5665 21.5237 22.1358 21.5237C22.0314 21.5237 21.925 21.5076 21.8206 21.4741C21.2845 21.2998 20.9905 20.7242 21.1649 20.1881ZM27.1006 21.1246C27.1006 21.393 26.9923 21.6567 26.8017 21.8462C26.6122 22.0367 26.3486 22.1451 26.0802 22.1451C25.8116 22.1451 25.5481 22.0367 25.3586 21.8462C25.168 21.6567 25.0596 21.393 25.0596 21.1246C25.0596 20.856 25.168 20.5925 25.3586 20.403C25.5481 20.2125 25.8116 20.104 26.0802 20.104C26.3486 20.104 26.6122 20.2125 26.8017 20.403C26.9923 20.5925 27.1006 20.8559 27.1006 21.1246ZM19.4055 19.2891C19.2059 19.5638 18.8948 19.7097 18.5796 19.7097C18.3708 19.7097 18.161 19.6459 17.9796 19.5141C17.5235 19.1826 17.4233 18.5442 17.7546 18.0882C18.0861 17.6321 18.7245 17.5318 19.1805 17.8632C19.6366 18.1947 19.7368 18.8331 19.4055 19.2891Z" fill="#3A3A3A"/>
</g>
<defs>
<filter id="filter0_d_477:621" x="0" y="0" width="38" height="38" filterUnits="userSpaceOnUse" color-interpolation-filters="sRGB">
<feFlood flood-opacity="0" result="BackgroundImageFix"/>
<feColorMatrix in="SourceAlpha" type="matrix" values="0 0 0 0 0 0 0 0 0 0 0 0 0 0 0 0 0 0 127 0" result="hardAlpha"/>
<feOffset dy="4"/>
<feGaussianBlur stdDeviation="2"/>
<feComposite in2="hardAlpha" operator="out"/>
<feColorMatrix type="matrix" values="0 0 0 0 0 0 0 0 0 0 0 0 0 0 0 0 0 0 0.25 0"/>
<feBlend mode="normal" in2="BackgroundImageFix" result="effect1_dropShadow_477:621"/>
<feBlend mode="normal" in="SourceGraphic" in2="effect1_dropShadow_477:621" result="shape"/>
</filter>
</defs>
</svg>
