<svg width="30" height="30" viewBox="0 0 30 30" fill="none" xmlns="http://www.w3.org/2000/svg">
<g clip-path="url(#clip0_477:635)">
<path d="M21.8994 14.5039C23.4715 12.9091 25.0927 11.26 27.1994 10.2131C28.125 9.75292 29.0878 9.47847 30 9.3986V8.91546C30 6.77877 28.3346 4.59323 26.2662 4.0585L23.7624 3.41411C23.1577 3.25773 21.9932 2.9406 21.0811 2.71063V15.3021C21.3851 15.0421 21.6303 14.7769 21.8994 14.5039Z" fill="#3A3A3A"/>
<path d="M17.2623 20.3673C16.6229 20.5427 15.9862 20.6294 15.3523 20.6294C14.308 20.6294 13.2736 20.3941 12.3673 19.9301C11.8983 19.69 11.4528 19.4021 11.0474 19.0817V27.2987C11.9595 27.0697 13.1399 26.7492 13.7636 26.5878L16.2501 25.9436C16.8868 25.7789 18.142 25.4595 19.0541 25.2316V19.6056C18.5473 19.9207 17.9185 20.1872 17.2623 20.3673Z" fill="#3A3A3A"/>
<path d="M8.93807 16.9465C8.14864 16.0578 7.39479 15.2186 6.4503 14.7628C5.26074 14.1891 3.24324 14.0673 0 16.5771V21.0862C0 23.223 1.69936 25.4087 3.76753 25.9435L6.24516 26.5877C6.86483 26.7481 8.1081 27.0653 9.02026 27.294V17.0588L8.93807 16.9465Z" fill="#3A3A3A"/>
<path d="M7.32901 12.9233C7.96743 13.2313 8.51351 13.6454 9.02026 14.0988V4.77992C8.1081 4.55026 6.88236 4.22249 6.24871 4.05861L3.75871 3.41421C1.69054 2.87908 0 4.18945 0 6.32563V14.0645C2.73648 12.3031 5.21807 11.9046 7.32901 12.9233Z" fill="#3A3A3A"/>
<path d="M23.3796 15.9377C22.758 16.5685 22.0897 17.2206 21.4237 17.826C21.3205 17.9196 21.1827 18.0142 21.0813 18.1087V25.2388C21.9935 25.4687 23.1694 25.7867 23.7759 25.9436L26.2537 26.5878C28.322 27.1229 30.0002 25.8125 30.0002 23.676V11.4521C29.3921 11.528 28.7571 11.7262 28.1213 12.0423C26.3205 12.9371 24.9006 14.3946 23.3796 15.9377Z" fill="#3A3A3A"/>
<path d="M13.3023 18.1119C14.304 18.6245 15.5105 18.7262 16.7094 18.3975C17.5835 18.1574 18.3447 17.682 19.0541 17.1477V2.70131C18.142 2.92925 16.8998 3.24881 16.261 3.41411L13.7531 4.05851C13.1432 4.21651 11.9595 4.52634 11.0474 4.75408V16.2715C11.7568 17.0379 12.4795 17.6905 13.3023 18.1119Z" fill="#3A3A3A"/>
</g>
<defs>
<clipPath id="clip0_477:635">
<rect width="30" height="30" fill="white"/>
</clipPath>
</defs>
</svg>
