<svg width="24" height="24" viewBox="0 0 24 24" fill="none" xmlns="http://www.w3.org/2000/svg">
<path fill-rule="evenodd" clip-rule="evenodd" d="M23.2079 12C23.2079 18.6274 18.0126 24 11.604 24C5.19527 24 0 18.6274 0 12C0 5.37258 5.19527 0 11.604 0C18.0126 0 23.2079 5.37258 23.2079 12ZM6.84838 10.0566C7.00018 10.1619 7.45776 10.4746 8.22113 10.9945C8.98453 11.5145 9.56935 11.9148 9.97561 12.1956C10.0202 12.2264 10.1151 12.2933 10.2601 12.3964C10.4052 12.4996 10.5258 12.583 10.6217 12.6466C10.7177 12.7101 10.8338 12.7815 10.97 12.8604C11.1062 12.9393 11.2345 12.9987 11.3551 13.0379C11.4756 13.0776 11.5872 13.0972 11.6899 13.0972H11.6966H11.7034C11.806 13.0972 11.9177 13.0775 12.0382 13.0379C12.1587 12.9987 12.2872 12.9393 12.4233 12.8604C12.5594 12.7814 12.6754 12.7101 12.7714 12.6466C12.8674 12.583 12.9879 12.4996 13.133 12.3964C13.2781 12.2932 13.373 12.2264 13.4177 12.1956C13.8283 11.9148 14.873 11.2017 16.5515 10.0564C16.8774 9.83274 17.1497 9.56283 17.3684 9.24687C17.5873 8.93106 17.6966 8.59975 17.6966 8.25314C17.6966 7.96349 17.5905 7.71555 17.3784 7.50934C17.1664 7.30307 16.9152 7.2 16.6251 7.2H6.768C6.42428 7.2 6.15976 7.31407 5.97449 7.54221C5.78925 7.7704 5.69662 8.05562 5.69662 8.39785C5.69662 8.67429 5.81943 8.97385 6.06493 9.29635C6.31041 9.61887 6.57164 9.8723 6.84838 10.0566ZM13.6922 13.3642C14.451 12.8244 15.5627 12.0674 17.0269 11.0934C17.2815 10.9223 17.5046 10.7313 17.6966 10.5208V15.7467C17.6966 16.0365 17.5918 16.2843 17.3819 16.4906C17.1721 16.6969 16.9198 16.8 16.6252 16.8H6.76808C6.47342 16.8 6.22114 16.6969 6.01134 16.4906C5.80149 16.2843 5.69662 16.0365 5.69662 15.7467V10.5208C5.89305 10.7358 6.1185 10.9268 6.37303 11.0934C7.98907 12.1728 9.09843 12.9298 9.70114 13.3642C9.95558 13.5484 10.1621 13.6923 10.3205 13.7953C10.479 13.8984 10.69 14.0037 10.9533 14.1112C11.2167 14.2188 11.4622 14.2724 11.6899 14.2724H11.6966H11.7035C11.9312 14.2724 12.1766 14.2188 12.44 14.1112C12.7034 14.0037 12.9142 13.8984 13.0728 13.7953C13.2313 13.6923 13.4377 13.5484 13.6922 13.3642Z" fill="#F4B207"/>
</svg>
