<svg width="30" height="30" viewBox="0 0 30 30" fill="none" xmlns="http://www.w3.org/2000/svg">
<g clip-path="url(#clip0_477:665)">
<path d="M28.9334 15.5671H28.759C28.4454 12.331 27.0323 9.36013 24.712 7.06379C22.3425 4.7187 19.2137 3.31037 15.9776 3.07231V1.01908C15.9776 0.456296 15.529 0 14.9663 0C14.4035 0 13.955 0.456296 13.955 1.01908V3.07231C10.6177 3.31027 7.58726 4.7186 5.2177 7.06379C2.89729 9.36033 1.48168 12.331 1.16828 15.5671H1.06644C0.503659 15.5671 0.0473633 16.0157 0.0473633 16.5784C0.0473633 17.1412 0.503659 17.5897 1.06644 17.5897H2.12739C2.35655 24.4665 8.01524 30.0001 14.9636 30.0001C21.9117 30.0001 27.5702 24.4665 27.7999 17.5897H28.9333C29.4962 17.5897 29.9524 17.1412 29.9524 16.5784C29.9524 16.0157 29.4963 15.5671 28.9334 15.5671ZM13.8597 26.4695C13.7637 26.9547 13.3378 27.2909 12.8612 27.2909C12.7956 27.2909 12.729 27.2844 12.6621 27.2713C12.4687 27.233 12.2748 27.1881 12.0862 27.138C9.08438 26.3359 6.49577 23.8826 5.32924 20.7349C5.13366 20.2071 5.40297 19.6207 5.93066 19.4251C6.45856 19.2298 7.0448 19.499 7.24039 20.0266C8.18089 22.5645 10.2388 24.5348 12.6112 25.1687C12.7566 25.2073 12.9073 25.2422 13.0579 25.272C13.61 25.3811 13.969 25.9173 13.8597 26.4695ZM6.64635 8.51236C8.65084 6.52851 11.2426 5.33761 14.0254 5.12018C14.1803 5.48536 14.5421 5.73697 14.9638 5.73697C15.3855 5.73697 15.7474 5.47838 15.9023 5.1132C18.685 5.33053 21.2766 6.52972 23.281 8.51348C25.2118 10.4244 26.4042 12.8367 26.7097 15.5671H3.21777C3.52328 12.8367 4.71559 10.4233 6.64635 8.51236Z" fill="#3A3A3A"/>
</g>
<defs>
<clipPath id="clip0_477:665">
<rect width="30" height="30" fill="white"/>
</clipPath>
</defs>
</svg>
