<svg width="30" height="30" viewBox="0 0 30 30" fill="none" xmlns="http://www.w3.org/2000/svg">
<path d="M28.9826 25.6642H27.8626L25.5939 21.8278H18.5645V25.6642H11.2955V21.8278H4.33364L2.0648 25.6642H1.01736C0.455423 25.6642 0 26.112 0 26.6738C0 27.2357 0.455524 27.6834 1.01736 27.6834H28.9826C29.5445 27.6834 30 27.2357 30 26.6738C30 26.112 29.5446 25.6642 28.9826 25.6642Z" fill="#3A3A3A"/>
<path d="M11.2958 19.7077V18.1153C11.2958 16.0933 12.9083 14.4542 14.9304 14.4542C16.9523 14.4542 18.5648 16.0932 18.5648 18.1153V19.7077H24.3948L16.0623 5.59359L17.164 3.73636C17.4293 3.28619 17.2794 2.71203 16.8293 2.44682C16.3791 2.1817 15.7991 2.33445 15.5337 2.78462L14.964 3.75271L14.3943 2.78684C14.1289 2.33677 13.549 2.18735 13.0987 2.45247C12.6485 2.71779 12.4987 3.2981 12.764 3.74827L13.8657 5.59359L5.53296 19.7077H11.2958Z" fill="#3A3A3A"/>
</svg>
