<svg width="200" height="130" viewBox="0 0 200 130" fill="none" xmlns="http://www.w3.org/2000/svg">
<path d="M120.987 9.48296L120.295 8.69272L119.603 9.87811L107.144 31.4124L96.6234 8.49515L95.7928 6.51953L94.9622 8.49515L89.9788 19.3611L81.1193 1.3829L80.4272 0L79.5966 0.987811L3.18387 96.0152L0 99.9664H3.87601H193.939H197.953L194.493 96.0152L120.987 9.48296ZM80.0119 5.72929L89.1483 24.3001L84.9954 22.3245L75.4437 32.9928L79.7351 11.4586L70.3219 45.8344L71.983 19.9538L67.2765 41.6856L64.0926 39.3148L48.727 65.1955L49.8344 51.9588L45.82 69.7394L33.0845 68.9492L34.4688 73.2956L8.1673 95.2249L80.0119 5.72929ZM103.545 36.9441L98.8383 31.8075L99.8073 61.6393L95.6544 17.3854L95.516 43.6612L89.5635 32.7953L77.6586 52.7491L95.516 13.2366L105.344 34.5734L103.268 33.388L103.545 36.9441ZM156.702 65.3931L145.35 60.2564L151.303 75.8638L131.784 40.8953L130.677 59.4662L127.216 46.8222L129.846 80.0127L120.987 21.1391L122.51 49.3905L113.096 33.388L102.022 46.8222L120.572 14.6196L188.955 95.0274L151.857 57.0954L156.702 65.3931Z" fill="#929292"/>
<path d="M13.2391 123.848C10.9798 123.848 8.93166 123.362 7.09465 122.391C5.27876 121.398 3.84294 120.036 2.78718 118.305C1.75255 116.552 1.23523 114.578 1.23523 112.382C1.23523 110.186 1.75255 108.222 2.78718 106.491C3.84294 104.738 5.27876 103.377 7.09465 102.405C8.93166 101.413 10.9904 100.917 13.2708 100.917C15.1923 100.917 16.9237 101.254 18.4651 101.93C20.0276 102.606 21.3367 103.577 22.3925 104.844L19.0985 107.885C17.5994 106.153 15.7413 105.287 13.5242 105.287C12.1517 105.287 10.927 105.594 9.85016 106.206C8.77329 106.797 7.92869 107.631 7.31636 108.708C6.72514 109.785 6.42953 111.01 6.42953 112.382C6.42953 113.755 6.72514 114.979 7.31636 116.056C7.92869 117.133 8.77329 117.978 9.85016 118.59C10.927 119.181 12.1517 119.477 13.5242 119.477C15.7413 119.477 17.5994 118.6 19.0985 116.848L22.3925 119.888C21.3367 121.176 20.0276 122.158 18.4651 122.834C16.9026 123.51 15.1606 123.848 13.2391 123.848Z" fill="#FF9500"/>
<path d="M49.6524 108.676C50.2436 107.853 51.0354 107.23 52.0278 106.808C53.0414 106.385 54.2027 106.174 55.5118 106.174V110.735C54.9628 110.693 54.5933 110.672 54.4033 110.672C52.9886 110.672 51.88 111.073 51.0777 111.875C50.2753 112.657 49.8741 113.839 49.8741 115.423V123.467H44.9332V106.428H49.6524V108.676Z" fill="#FF9500"/>
<path d="M68.5216 106.174C70.1052 106.174 71.541 106.544 72.829 107.283C74.1382 108.001 75.1622 109.025 75.9013 110.355C76.6403 111.664 77.0098 113.195 77.0098 114.948C77.0098 116.7 76.6403 118.241 75.9013 119.572C75.1622 120.881 74.1382 121.905 72.829 122.644C71.541 123.362 70.1052 123.721 68.5216 123.721C66.3467 123.721 64.6364 123.035 63.3906 121.662V129.612H58.4497V106.428H63.1689V108.391C64.3936 106.913 66.1778 106.174 68.5216 106.174ZM67.6664 119.667C68.9333 119.667 69.9679 119.244 70.7703 118.4C71.5938 117.534 72.0055 116.383 72.0055 114.948C72.0055 113.512 71.5938 112.372 70.7703 111.527C69.9679 110.661 68.9333 110.228 67.6664 110.228C66.3995 110.228 65.3543 110.661 64.5308 111.527C63.7284 112.372 63.3273 113.512 63.3273 114.948C63.3273 116.383 63.7284 117.534 64.5308 118.4C65.3543 119.244 66.3995 119.667 67.6664 119.667Z" fill="#FF9500"/>
<path d="M110.577 122.644C110.092 123.003 109.49 123.277 108.772 123.467C108.075 123.636 107.336 123.721 106.555 123.721C104.528 123.721 102.955 123.204 101.836 122.169C100.738 121.134 100.189 119.614 100.189 117.608V110.608H97.5598V106.808H100.189V102.659H105.13V106.808H109.374V110.608H105.13V117.545C105.13 118.263 105.309 118.822 105.668 119.223C106.048 119.603 106.576 119.793 107.252 119.793C108.033 119.793 108.698 119.582 109.247 119.16L110.577 122.644Z" fill="#FF9500"/>
<path d="M123.708 106.174C125.819 106.174 127.519 106.808 128.807 108.075C130.116 109.342 130.771 111.221 130.771 113.712V123.467H125.83V114.472C125.83 113.121 125.534 112.118 124.943 111.464C124.352 110.788 123.497 110.45 122.377 110.45C121.132 110.45 120.139 110.841 119.4 111.622C118.661 112.382 118.292 113.522 118.292 115.043V123.467H113.351V99.9664H118.292V108.201C118.946 107.547 119.738 107.051 120.667 106.713C121.596 106.354 122.61 106.174 123.708 106.174Z" fill="#FF9500"/>
<path d="M135.249 108.407H140.19V123.467H135.249V108.407ZM137.72 106.032C136.812 106.032 136.073 105.768 135.503 105.24C134.933 104.712 134.648 104.057 134.648 103.276C134.648 102.495 134.933 101.84 135.503 101.313C136.073 100.785 136.812 100.521 137.72 100.521C138.628 100.521 139.367 100.774 139.937 101.281C140.507 101.788 140.792 102.421 140.792 103.181C140.792 104.005 140.507 104.691 139.937 105.24C139.367 105.768 138.628 106.032 137.72 106.032Z" fill="#FF9500"/>
<path d="M174.681 106.174C176.792 106.174 178.492 106.808 179.78 108.075C181.089 109.342 181.744 111.221 181.744 113.712V123.467H176.803V114.472C176.803 113.121 176.507 112.118 175.916 111.464C175.325 110.788 174.47 110.45 173.35 110.45C172.105 110.45 171.112 110.841 170.373 111.622C169.634 112.382 169.265 113.522 169.265 115.043V123.467H164.324V106.428H169.043V108.423C169.698 107.705 170.511 107.156 171.482 106.776C172.453 106.375 173.519 106.174 174.681 106.174Z" fill="#FF9500"/>
<path d="M191.955 123.721C190.54 123.721 189.157 123.552 187.806 123.214C186.455 122.855 185.378 122.412 184.575 121.884L186.222 118.337C186.983 118.822 187.901 119.223 188.978 119.54C190.055 119.836 191.111 119.983 192.145 119.983C194.236 119.983 195.281 119.466 195.281 118.432C195.281 117.946 194.996 117.597 194.426 117.386C193.855 117.175 192.979 116.996 191.797 116.848C190.403 116.637 189.252 116.394 188.344 116.119C187.437 115.845 186.645 115.359 185.969 114.662C185.314 113.966 184.987 112.973 184.987 111.685C184.987 110.608 185.293 109.658 185.906 108.835C186.539 107.99 187.447 107.336 188.63 106.871C189.833 106.407 191.248 106.174 192.874 106.174C194.077 106.174 195.27 106.311 196.453 106.586C197.656 106.839 198.649 107.198 199.43 107.663L197.783 111.179C196.284 110.334 194.647 109.912 192.874 109.912C191.818 109.912 191.026 110.059 190.498 110.355C189.97 110.651 189.706 111.031 189.706 111.495C189.706 112.023 189.991 112.393 190.562 112.604C191.132 112.815 192.04 113.016 193.285 113.206C194.679 113.438 195.819 113.691 196.706 113.966C197.593 114.219 198.364 114.694 199.018 115.391C199.673 116.088 200 117.059 200 118.305C200 119.361 199.683 120.3 199.05 121.124C198.416 121.947 197.487 122.591 196.263 123.056C195.059 123.499 193.623 123.721 191.955 123.721Z" fill="#FF9500"/>
<path d="M43.3294 81.3325V100.233H38.9554V92.4835H30.3694V100.233H25.9954V81.3325H30.3694V88.7845H38.9554V81.3325H43.3294ZM47.5041 85.7065H51.7161V100.233H47.5041V85.7065ZM49.6101 83.6815C48.8361 83.6815 48.2061 83.4565 47.7201 83.0065C47.2341 82.5565 46.9911 81.9985 46.9911 81.3325C46.9911 80.6665 47.2341 80.1085 47.7201 79.6585C48.2061 79.2085 48.8361 78.9835 49.6101 78.9835C50.3841 78.9835 51.0141 79.1995 51.5001 79.6315C51.9861 80.0635 52.2291 80.6035 52.2291 81.2515C52.2291 81.9535 51.9861 82.5385 51.5001 83.0065C51.0141 83.4565 50.3841 83.6815 49.6101 83.6815ZM61.8622 94.5355L59.8372 96.5335V100.233H55.6252V80.1985H59.8372V91.5385L65.9932 85.7065H71.0152L64.9672 91.8625L71.5552 100.233H66.4522L61.8622 94.5355ZM87.0456 93.0235C87.0456 93.0775 87.0186 93.4555 86.9646 94.1575H75.9756C76.1736 95.0575 76.6416 95.7685 77.3796 96.2905C78.1176 96.8125 79.0356 97.0735 80.1336 97.0735C80.8896 97.0735 81.5556 96.9655 82.1316 96.7495C82.7256 96.5155 83.2746 96.1555 83.7786 95.6695L86.0196 98.0995C84.6516 99.6655 82.6536 100.449 80.0256 100.449C78.3876 100.449 76.9386 100.134 75.6786 99.5035C74.4186 98.8555 73.4466 97.9645 72.7626 96.8305C72.0786 95.6965 71.7366 94.4095 71.7366 92.9695C71.7366 91.5475 72.0696 90.2695 72.7356 89.1355C73.4196 87.9835 74.3466 87.0925 75.5166 86.4625C76.7046 85.8145 78.0276 85.4905 79.4856 85.4905C80.9076 85.4905 82.1946 85.7965 83.3466 86.4085C84.4986 87.0205 85.3986 87.9025 86.0466 89.0545C86.7126 90.1885 87.0456 91.5115 87.0456 93.0235ZM79.5126 88.6765C78.5586 88.6765 77.7576 88.9465 77.1096 89.4865C76.4616 90.0265 76.0656 90.7645 75.9216 91.7005H83.0766C82.9326 90.7825 82.5366 90.0535 81.8886 89.5135C81.2406 88.9555 80.4486 88.6765 79.5126 88.6765Z" fill="white"/>
<path d="M22.9306 121.674L32.2663 105.789L30.6331 103.13C30.4145 102.774 30.5113 102.299 30.8494 102.069C31.1876 101.839 31.6393 101.94 31.8584 102.297L33.1562 104.412L34.4558 102.297C34.6744 101.941 35.1262 101.839 35.4639 102.069C35.802 102.299 35.8988 102.774 35.6811 103.13L34.0483 105.79L43.3836 121.674C43.594 122.028 43.6054 122.47 43.4133 122.835C43.2216 123.2 42.8565 123.423 42.4609 123.423H38.3288C37.9559 123.423 37.6082 123.223 37.4065 122.893L33.8959 117.125C33.7344 116.86 33.456 116.7 33.1571 116.7C32.8587 116.7 32.5798 116.86 32.4183 117.125L28.9095 122.893C28.7087 123.224 28.361 123.424 27.9873 123.424H23.8538C23.4577 123.424 23.0926 123.201 22.901 122.835C22.7093 122.469 22.7203 122.027 22.9306 121.674Z" fill="#FF9500"/>
<path d="M77.3678 121.674L86.7035 105.789L85.0703 103.13C84.8517 102.774 84.9484 102.299 85.2866 102.069C85.6247 101.839 86.0765 101.94 86.2955 102.297L87.5933 104.412L88.893 102.297C89.1116 101.941 89.5633 101.839 89.901 102.069C90.2392 102.299 90.3359 102.774 90.1182 103.13L88.4855 105.79L97.8207 121.674C98.0311 122.028 98.0425 122.47 97.8504 122.835C97.6587 123.2 97.2937 123.423 96.898 123.423H92.7659C92.3931 123.423 92.0453 123.223 91.8436 122.893L88.3331 117.125C88.1715 116.86 87.8931 116.7 87.5942 116.7C87.2958 116.7 87.017 116.86 86.8554 117.125L83.3467 122.893C83.1459 123.224 82.7982 123.424 82.4244 123.424H78.2909C77.8948 123.424 77.5298 123.201 77.3381 122.835C77.1464 122.469 77.1574 122.027 77.3678 121.674Z" fill="#FF9500"/>
<path d="M141.703 121.674L151.038 105.789L149.405 103.13C149.187 102.774 149.283 102.299 149.621 102.069C149.96 101.839 150.411 101.94 150.63 102.297L151.928 104.412L153.228 102.297C153.446 101.941 153.898 101.839 154.236 102.069C154.574 102.299 154.671 102.774 154.453 103.13L152.82 105.79L162.156 121.674C162.366 122.028 162.377 122.47 162.185 122.835C161.994 123.2 161.628 123.423 161.233 123.423H157.101C156.728 123.423 156.38 123.223 156.178 122.893L152.668 117.125C152.506 116.86 152.228 116.7 151.929 116.7C151.631 116.7 151.352 116.86 151.19 117.125L147.682 122.893C147.481 123.224 147.133 123.424 146.759 123.424H142.626C142.23 123.424 141.865 123.201 141.673 122.835C141.481 122.469 141.492 122.027 141.703 121.674Z" fill="#FF9500"/>
</svg>
