<svg width="30" height="30" viewBox="0 0 30 30" fill="none" xmlns="http://www.w3.org/2000/svg">
<g clip-path="url(#clip0_477:646)">
<path d="M29.3089 19.9197L27.7063 19.3768L28.2491 17.7743C28.4294 17.2422 28.1442 16.6647 27.612 16.4845C27.0801 16.3038 26.5024 16.5895 26.3223 17.1217L26.0492 17.9278C25.0289 17.2519 23.6889 17.1077 22.499 17.6645C20.4214 18.6366 18.197 19.1912 15.976 19.3303V16.2092C19.2065 16.0646 22.5313 15.2818 25.5772 13.8568C26.7185 13.3228 27.4526 12.2713 27.6298 11.1129L28.6558 11.4602C28.7639 11.4968 28.8742 11.5143 28.9826 11.5143C29.4067 11.5143 29.8025 11.247 29.946 10.823C30.1263 10.2908 29.8412 9.71339 29.309 9.53319L27.7066 8.99047L28.2493 7.38806C28.4296 6.85594 28.1444 6.2785 27.6121 6.0983C27.0803 5.91779 26.5025 6.20319 26.3224 6.7354L26.0494 7.54141C25.0291 6.86543 23.6892 6.72127 22.4993 7.27782C20.4215 8.25009 18.1971 8.80462 15.9761 8.94373V1.15246C15.9761 0.590256 15.5286 0.135063 14.9665 0.135063C14.4046 0.135063 13.9571 0.590256 13.9571 1.15246V8.95534C11.6352 8.83702 9.49721 8.28562 7.49432 7.30033C6.31521 6.72046 4.97153 6.83878 3.93809 7.49537L3.67925 6.7353C3.49895 6.20319 2.92049 5.91779 2.38858 6.0983C1.85646 6.2786 1.57087 6.85614 1.75117 7.38816L2.29388 8.99047L0.691272 9.53319C0.159154 9.71339 -0.126238 10.2909 0.0540626 10.823C0.197616 11.2469 0.593247 11.5143 1.01745 11.5143C1.12557 11.5143 1.23571 11.4968 1.34383 11.4602L2.30095 11.136C2.48246 12.2579 3.19094 13.2781 4.28839 13.8179C7.2901 15.2943 10.5246 16.0925 13.957 16.2166V19.3417C11.6351 19.2235 9.49711 18.672 7.49402 17.6868C6.3149 17.1068 4.97143 17.2251 3.93809 17.8817L3.67915 17.1215C3.49885 16.5894 2.92039 16.3042 2.38848 16.4844C1.85636 16.6647 1.57077 17.2423 1.75107 17.7743L2.29378 19.3767L0.691171 19.9196C0.159154 20.0998 -0.126137 20.6774 0.0541636 21.2095C0.197818 21.6334 0.593348 21.9007 1.01755 21.9007C1.12577 21.9007 1.23581 21.8832 1.34413 21.8466L2.30105 21.5224C2.48266 22.6443 3.19115 23.6645 4.28859 24.2042C7.2899 25.6806 10.5247 26.4788 13.9571 26.603V29.8647H15.9761V26.5954C19.2066 26.4508 22.5314 25.6682 25.5776 24.2428C26.7186 23.7089 27.4527 22.6574 27.6299 21.4991L28.6558 21.8464C28.764 21.883 28.8743 21.9005 28.9827 21.9005C29.4066 21.9005 29.8026 21.6333 29.9461 21.2093C30.1261 20.6775 29.841 20.0999 29.3089 19.9197Z" fill="#3A3A3A"/>
</g>
<defs>
<clipPath id="clip0_477:646">
<rect width="30" height="30" fill="white"/>
</clipPath>
</defs>
</svg>
